<svg id="_0348_radio_presenter" xmlns="http://www.w3.org/2000/svg" xmlns:xlink="http://www.w3.org/1999/xlink" viewBox="0 0 500 500" data-imageid="radio-presenter-19-16c00" imageName="Radio Presenter" class="illustrations_image" style="width: 171px;"><defs><style>.cls-1_radio-presenter-19-16c00{fill:none;}.cls-1_radio-presenter-19-16c00,.cls-2_radio-presenter-19-16c00,.cls-3_radio-presenter-19-16c00,.cls-4_radio-presenter-19-16c00,.cls-5_radio-presenter-19-16c00,.cls-6_radio-presenter-19-16c00,.cls-7_radio-presenter-19-16c00,.cls-8_radio-presenter-19-16c00,.cls-9_radio-presenter-19-16c00,.cls-10_radio-presenter-19-16c00,.cls-11_radio-presenter-19-16c00,.cls-12_radio-presenter-19-16c00,.cls-13_radio-presenter-19-16c00,.cls-14_radio-presenter-19-16c00,.cls-15_radio-presenter-19-16c00,.cls-16_radio-presenter-19-16c00,.cls-17_radio-presenter-19-16c00,.cls-18_radio-presenter-19-16c00,.cls-19_radio-presenter-19-16c00,.cls-20_radio-presenter-19-16c00,.cls-21_radio-presenter-19-16c00,.cls-22_radio-presenter-19-16c00,.cls-23_radio-presenter-19-16c00,.cls-24_radio-presenter-19-16c00,.cls-25_radio-presenter-19-16c00,.cls-26_radio-presenter-19-16c00,.cls-27_radio-presenter-19-16c00,.cls-28_radio-presenter-19-16c00,.cls-29_radio-presenter-19-16c00,.cls-30_radio-presenter-19-16c00{stroke-width:0px;}.cls-2_radio-presenter-19-16c00{fill:url(#linear-gradient);}.cls-3_radio-presenter-19-16c00{isolation:isolate;opacity:.18;}.cls-3_radio-presenter-19-16c00,.cls-30_radio-presenter-19-16c00{fill:#68e1fd;}.cls-4_radio-presenter-19-16c00{fill:url(#linear-gradient-11-radio-presenter-19-16c00);}.cls-5_radio-presenter-19-16c00{fill:url(#linear-gradient-12-radio-presenter-19-16c00);}.cls-6_radio-presenter-19-16c00{fill:url(#linear-gradient-13-radio-presenter-19-16c00);}.cls-7_radio-presenter-19-16c00{fill:url(#linear-gradient-10-radio-presenter-19-16c00);}.cls-8_radio-presenter-19-16c00{fill:url(#linear-gradient-17-radio-presenter-19-16c00);}.cls-9_radio-presenter-19-16c00{fill:url(#linear-gradient-16-radio-presenter-19-16c00);}.cls-10_radio-presenter-19-16c00{fill:url(#linear-gradient-19-radio-presenter-19-16c00);}.cls-11_radio-presenter-19-16c00{fill:url(#linear-gradient-15-radio-presenter-19-16c00);}.cls-12_radio-presenter-19-16c00{fill:url(#linear-gradient-18-radio-presenter-19-16c00);}.cls-13_radio-presenter-19-16c00{fill:url(#linear-gradient-14-radio-presenter-19-16c00);}.cls-14_radio-presenter-19-16c00{fill:url(#linear-gradient-20-radio-presenter-19-16c00);}.cls-15_radio-presenter-19-16c00{fill:url(#linear-gradient-4-radio-presenter-19-16c00);}.cls-16_radio-presenter-19-16c00{fill:url(#linear-gradient-2-radio-presenter-19-16c00);}.cls-17_radio-presenter-19-16c00{fill:url(#linear-gradient-3-radio-presenter-19-16c00);}.cls-18_radio-presenter-19-16c00{fill:url(#linear-gradient-8-radio-presenter-19-16c00);}.cls-19_radio-presenter-19-16c00{fill:url(#linear-gradient-9-radio-presenter-19-16c00);}.cls-20_radio-presenter-19-16c00{fill:url(#linear-gradient-7-radio-presenter-19-16c00);}.cls-21_radio-presenter-19-16c00{fill:url(#linear-gradient-5-radio-presenter-19-16c00);}.cls-22_radio-presenter-19-16c00{fill:url(#linear-gradient-6-radio-presenter-19-16c00);}.cls-23_radio-presenter-19-16c00{fill:#f3fcff;}.cls-24_radio-presenter-19-16c00{fill:#231f20;}.cls-25_radio-presenter-19-16c00{fill:#ad7862;}.cls-26_radio-presenter-19-16c00{fill:#c14834;}.cls-27_radio-presenter-19-16c00{fill:#fff;}.cls-28_radio-presenter-19-16c00{fill:#ffaa71;}.cls-29_radio-presenter-19-16c00{fill:#ffb4a3;}</style><linearGradient id="linear-gradient-radio-presenter-19-16c00" x1="-1092.84" y1="1860.35" x2="-1031.42" y2="1830.17" gradientTransform="translate(1287.58 1971.11) scale(1 -1)" gradientUnits="userSpaceOnUse"><stop offset="0" stop-color="#231f20" stop-opacity="0"/><stop offset="1" stop-color="#231f20"/></linearGradient><linearGradient id="linear-gradient-2-radio-presenter-19-16c00" x1="-1077.76" y1="1766.99" x2="-1079.19" y2="1705.92" gradientTransform="translate(1287.58 1971.13) scale(1 -1)" xlink:href="#linear-gradient-radio-presenter-19-16c00"/><linearGradient id="linear-gradient-3-radio-presenter-19-16c00" x1="-986.28" y1="1764.39" x2="-987.35" y2="1694.34" gradientTransform="translate(1287.58 1971.11) scale(1 -1)" xlink:href="#linear-gradient-radio-presenter-19-16c00"/><linearGradient id="linear-gradient-4-radio-presenter-19-16c00" x1="-1078.94" y1="1779.08" x2="-1078.67" y2="1737.86" xlink:href="#linear-gradient-radio-presenter-19-16c00"/><linearGradient id="linear-gradient-5-radio-presenter-19-16c00" x1="-986.82" y1="1779.68" x2="-986.55" y2="1738.46" xlink:href="#linear-gradient-radio-presenter-19-16c00"/><linearGradient id="linear-gradient-6-radio-presenter-19-16c00" x1="-962.84" y1="1867.52" x2="-1041.88" y2="1823.33" xlink:href="#linear-gradient-radio-presenter-19-16c00"/><linearGradient id="linear-gradient-7-radio-presenter-19-16c00" x1="-955.04" y1="1749.9" x2="-936.31" y2="1749.9" gradientTransform="translate(1289 1979.9) scale(1 -1)" xlink:href="#linear-gradient-radio-presenter-19-16c00"/><linearGradient id="linear-gradient-8-radio-presenter-19-16c00" x1="-927.26" y1="1683.28" x2="-925.64" y2="1738.78" xlink:href="#linear-gradient-radio-presenter-19-16c00"/><linearGradient id="linear-gradient-9-radio-presenter-19-16c00" x1="-925.83" y1="1748.57" x2="-923.56" y2="1702.41" xlink:href="#linear-gradient-radio-presenter-19-16c00"/><linearGradient id="linear-gradient-10-radio-presenter-19-16c00" x1="-867.54" y1="1695.9" x2="-965.07" y2="1500.31" xlink:href="#linear-gradient-radio-presenter-19-16c00"/><linearGradient id="linear-gradient-11-radio-presenter-19-16c00" x1="-905.4" y1="1622.93" x2="-910.63" y2="1588.7" xlink:href="#linear-gradient-radio-presenter-19-16c00"/><linearGradient id="linear-gradient-12-radio-presenter-19-16c00" x1="-904" y1="1714.08" x2="-1001.52" y2="1518.48" xlink:href="#linear-gradient-radio-presenter-19-16c00"/><linearGradient id="linear-gradient-13-radio-presenter-19-16c00" x1="-923.36" y1="1704.72" x2="-929.01" y2="1669.43" xlink:href="#linear-gradient-radio-presenter-19-16c00"/><linearGradient id="linear-gradient-14-radio-presenter-19-16c00" x1="-933.03" y1="1780.03" x2="-919.28" y2="1780.03" xlink:href="#linear-gradient-radio-presenter-19-16c00"/><linearGradient id="linear-gradient-15-radio-presenter-19-16c00" x1="-911.69" y1="1747.78" x2="-892.96" y2="1747.78" gradientTransform="translate(1289 1979.9) scale(1 -1)" xlink:href="#linear-gradient-radio-presenter-19-16c00"/><linearGradient id="linear-gradient-16-radio-presenter-19-16c00" x1="-1209.05" y1="1672.93" x2="-1124.18" y2="1610.97" xlink:href="#linear-gradient-radio-presenter-19-16c00"/><linearGradient id="linear-gradient-17-radio-presenter-19-16c00" x1="-1075.01" y1="1623.22" x2="-1116.32" y2="1629.32" gradientTransform="translate(1289 1979.9) scale(1 -1)" xlink:href="#linear-gradient-radio-presenter-19-16c00"/><linearGradient id="linear-gradient-18-radio-presenter-19-16c00" x1="6587.64" y1="3577.97" x2="6601.36" y2="3577.97" gradientTransform="translate(7528.34 834.6) rotate(158.3) scale(1 .93) skewX(.42)" xlink:href="#linear-gradient-radio-presenter-19-16c00"/><linearGradient id="linear-gradient-19-radio-presenter-19-16c00" x1="6615.92" y1="3561.76" x2="6634.65" y2="3561.76" gradientTransform="translate(6766.24 3550.8) rotate(-180) scale(1 .93)" xlink:href="#linear-gradient-radio-presenter-19-16c00"/><linearGradient id="linear-gradient-20-radio-presenter-19-16c00" x1="-1052.42" y1="1627.11" x2="-1043.53" y2="1544.67" gradientTransform="translate(1289 1979.9) scale(1 -1)" xlink:href="#linear-gradient-radio-presenter-19-16c00"/></defs><g id="background_radio-presenter-19-16c00"><path class="cls-3_radio-presenter-19-16c00 targetColor" d="M454.82,376.64c-27.43,19.58-62.11,25.5-95.59,29.48-74.98,8.88-150.62,10.66-225.93,5.31-49.25-3.54-82.7-9.44-107.02-54.94-17.79-33.32-24.19-62.68-18.23-100.44,3.72-23.49,9.88-47.35,24.08-66.43,29.76-39.99,86.4-49.56,122.33-84.04,11.13-10.71,20.05-23.66,32.04-33.41,16.84-13.76,38-19.85,59.87-22.18,1.85-.21,3.7-.39,5.55-.53,2.16-.17,4.32-.31,6.49-.41,1.85-.09,3.7-.15,5.55-.21,4.72-.13,9.44-.13,14.15,0,29.14.53,59.42,4.25,83.92,19.98,29.7,19.08,46.43,52.74,58.5,85.89,12.07,33.15,21.38,68.12,41.86,96.87,8.69,12.21,19.39,23.29,24.99,37.17,12.68,31.25-5.12,68.32-32.56,87.89Z" style="fill: rgb(104, 225, 253);"/><path class="cls-3_radio-presenter-19-16c00 targetColor" d="M46.41,342.33c.62-7.29,2.72-14.37,6.16-20.83,11.33-22.41,32.03-38.64,53.63-51.46,21.59-12.82,44.82-23.05,65.26-37.59,10.02-7.14,19.5-15.33,30.82-20.13,16.51-6.98,35.31-5.97,52.9-2.56,26.41,5.11,52.73,16.03,70.33,36.36,16.45,19.02,25.12,45.84,47.12,58.04,6.29,3.54,13.27,5.5,19.87,8.26,14.56,6.22,27.17,16.25,36.5,29.04,5.11,7.08,9.29,15.51,8.02,24.11-1.18,8.18-7.3,15.04-14.54,19.02-10.33,5.68-22.6,6.3-34.38,6.56-95.05,2.11-190.26-10.13-285.04-2.85-11.92.91-33.62,7.37-42.46-3.64-8.46-10.63-14.95-28.82-14.16-42.32Z" style="fill: rgb(104, 225, 253);"/></g><g id="microphone_radio-presenter-19-16c00"><path class="cls-30_radio-presenter-19-16c00 targetColor" d="M209.25,255.37h0c-5.26.06-9.58-4.16-9.63-9.42l-.19-17.19c-.06-5.26,4.16-9.58,9.42-9.63h0c5.26-.06,9.58,4.16,9.63,9.42l.19,17.19c.06,5.26-4.16,9.58-9.42,9.63Z" style="fill: rgb(104, 225, 253);"/><path class="cls-30_radio-presenter-19-16c00 targetColor" d="M221.36,218.38c1.82,2.21,2.87,4.94,3.01,7.8l.42,8.35c.06,1.15-.83,2.14-1.98,2.19-1.15.06-2.14-.83-2.19-1.98l-.41-8.36c-.25-4.85-4.26-8.66-9.12-8.66h-4.81c-5.03,0-9.11,4.09-9.11,9.13,0,.06,0,.11,0,.17l.13,7.08c.11,1.15-.74,2.16-1.89,2.27-1.15.11-2.16-.74-2.27-1.89,0-.1-.01-.2,0-.3l-.14-7.08c-.14-7.34,5.69-13.41,13.03-13.55.08,0,.17,0,.25,0h4.81c3.97,0,7.74,1.77,10.27,4.84Z" style="fill: rgb(104, 225, 253);"/><path class="cls-30_radio-presenter-19-16c00 targetColor" d="M251.89,49.45v110.86l-26.83,9.01-12.47,36.1c-.39,1.12-1.44,1.87-2.63,1.88-.31,0-.62-.05-.91-.15-1.45-.51-2.22-2.09-1.72-3.54l13.36-38.68,25.64-8.61V49.98c1.88-.21,3.73-.39,5.55-.53Z" style="fill: rgb(104, 225, 253);"/><path class="cls-2_radio-presenter-19-16c00" d="M251.89,49.45v110.86l-26.83,9.01-12.47,36.1c-.39,1.12-1.44,1.87-2.63,1.88-.31,0-.62-.05-.91-.15-1.45-.51-2.22-2.09-1.72-3.54l13.36-38.68,25.64-8.61V49.98c1.88-.21,3.73-.39,5.55-.53Z"/><circle class="cls-27_radio-presenter-19-16c00" cx="248.3" cy="158.59" r="4.82"/><path class="cls-30_radio-presenter-19-16c00 targetColor" d="M248.35,165.37c-3.75,0-6.78-3.04-6.78-6.78s3.04-6.78,6.78-6.78,6.78,3.04,6.78,6.78h0c0,3.74-3.04,6.77-6.78,6.78ZM248.35,155.73c-1.58,0-2.87,1.28-2.87,2.87s1.28,2.87,2.87,2.87c1.58,0,2.87-1.28,2.87-2.87h0c0-1.58-1.28-2.87-2.87-2.87Z" style="fill: rgb(104, 225, 253);"/><circle class="cls-27_radio-presenter-19-16c00" cx="222.66" cy="166.62" r="4.82"/><path class="cls-30_radio-presenter-19-16c00 targetColor" d="M222.65,173.41c-3.75,0-6.79-3.04-6.79-6.79s3.04-6.79,6.79-6.79c3.75,0,6.79,3.04,6.79,6.79,0,0,0,0,0,.01,0,3.75-3.05,6.78-6.79,6.78ZM222.65,163.75c-1.59,0-2.88,1.28-2.89,2.87,0,1.59,1.28,2.88,2.87,2.89s2.88-1.28,2.89-2.87c0,0,0,0,0-.01,0-1.58-1.27-2.87-2.85-2.88,0,0,0,0-.01,0Z" style="fill: rgb(104, 225, 253);"/><rect class="cls-30_radio-presenter-19-16c00 targetColor" x="207.2" y="202.83" width="4.38" height="13.57" rx="2.18" ry="2.18" transform="translate(-2.62 2.65) rotate(-.72)" style="fill: rgb(104, 225, 253);"/><rect class="cls-30_radio-presenter-19-16c00 targetColor" x="293.98" y="208.39" width="13.57" height="4.38" rx="2.18" ry="2.18" transform="translate(83.26 506.38) rotate(-88.67)" style="fill: rgb(104, 225, 253);"/><path class="cls-30_radio-presenter-19-16c00 targetColor" d="M301.21,220.04h0c5.26.11,9.44,4.47,9.32,9.73l-.37,17.19c-.11,5.26-4.47,9.44-9.73,9.32h0c-5.26-.11-9.44-4.47-9.32-9.73l.37-17.19c.11-5.26,4.47-9.44,9.73-9.32Z" style="fill: rgb(104, 225, 253);"/><path class="cls-30_radio-presenter-19-16c00 targetColor" d="M209.25,255.37h0c-5.26.06-9.58-4.16-9.63-9.42l-.19-17.19c-.06-5.26,4.16-9.58,9.42-9.63h0c5.26-.06,9.58,4.16,9.63,9.42l.19,17.19c.06,5.26-4.16,9.58-9.42,9.63Z" style="fill: rgb(104, 225, 253);"/><path class="cls-16_radio-presenter-19-16c00" d="M209.25,255.37h0c-5.26.06-9.58-4.16-9.63-9.42l-.19-17.19c-.06-5.26,4.16-9.58,9.42-9.63h0c5.26-.06,9.58,4.16,9.63,9.42l.19,17.19c.06,5.26-4.16,9.58-9.42,9.63Z"/><path class="cls-17_radio-presenter-19-16c00" d="M301.21,220.04h0c5.26.11,9.44,4.47,9.32,9.73l-.37,17.19c-.11,5.26-4.47,9.44-9.73,9.32h0c-5.26-.11-9.44-4.47-9.32-9.73l.37-17.19c.11-5.26,4.47-9.44,9.73-9.32Z"/><path class="cls-30_radio-presenter-19-16c00 targetColor" d="M288.69,219.19c-1.85,2.18-2.93,4.91-3.1,7.76l-.51,8.35c-.02,1.15.89,2.11,2.05,2.13,1.08.02,2-.79,2.12-1.87l.51-8.36c.3-4.85,4.34-8.62,9.2-8.56h4.81c5.03.05,9.06,4.16,9.02,9.19,0,.08,0,.16,0,.24l-.2,7.08c-.11,1.15.73,2.17,1.87,2.28,1.15.11,2.17-.73,2.28-1.87,0-.1.01-.19,0-.29l.21-7.08c.21-7.34-5.57-13.46-12.91-13.66-.09,0-.18,0-.27,0l-4.81-.06c-3.96-.04-7.73,1.69-10.27,4.73Z" style="fill: rgb(104, 225, 253);"/><path class="cls-30_radio-presenter-19-16c00 targetColor" d="M221.36,218.38c1.82,2.21,2.87,4.94,3.01,7.8l.42,8.35c.06,1.15-.83,2.14-1.98,2.19-1.15.06-2.14-.83-2.19-1.98l-.41-8.36c-.25-4.85-4.26-8.66-9.12-8.66h-4.81c-5.03,0-9.11,4.09-9.11,9.13,0,.06,0,.11,0,.17l.13,7.08c.11,1.15-.74,2.16-1.89,2.27-1.15.11-2.16-.74-2.27-1.89,0-.1-.01-.2,0-.3l-.14-7.08c-.14-7.34,5.69-13.41,13.03-13.55.08,0,.17,0,.25,0h4.81c3.97,0,7.74,1.77,10.27,4.84Z" style="fill: rgb(104, 225, 253);"/><path class="cls-30_radio-presenter-19-16c00 targetColor" d="M288.69,219.19c-1.85,2.18-2.93,4.91-3.1,7.76l-.51,8.35c-.02,1.15.89,2.11,2.05,2.13,1.08.02,2-.79,2.12-1.87l.51-8.36c.3-4.85,4.34-8.62,9.2-8.56h4.81c5.03.05,9.06,4.16,9.02,9.19,0,.08,0,.16,0,.24l-.2,7.08c-.11,1.15.73,2.17,1.87,2.28,1.15.11,2.17-.73,2.28-1.87,0-.1.01-.19,0-.29l.21-7.08c.21-7.34-5.57-13.46-12.91-13.66-.09,0-.18,0-.27,0l-4.81-.06c-3.96-.04-7.73,1.69-10.27,4.73Z" style="fill: rgb(104, 225, 253);"/><path class="cls-15_radio-presenter-19-16c00" d="M221.36,218.38c1.82,2.21,2.87,4.94,3.01,7.8l.42,8.35c.06,1.15-.83,2.14-1.98,2.19-1.15.06-2.14-.83-2.19-1.98l-.41-8.36c-.25-4.85-4.26-8.66-9.12-8.66h-4.81c-5.03,0-9.11,4.09-9.11,9.13,0,.06,0,.11,0,.17l.13,7.08c.11,1.15-.74,2.16-1.89,2.27-1.15.11-2.16-.74-2.27-1.89,0-.1-.01-.2,0-.3l-.14-7.08c-.14-7.34,5.69-13.41,13.03-13.55.08,0,.17,0,.25,0h4.81c3.97,0,7.74,1.77,10.27,4.84Z"/><path class="cls-21_radio-presenter-19-16c00" d="M288.69,219.19c-1.85,2.18-2.93,4.91-3.1,7.76l-.51,8.35c-.02,1.15.89,2.11,2.05,2.13,1.08.02,2-.79,2.12-1.87l.51-8.36c.3-4.85,4.34-8.62,9.2-8.56h4.81c5.03.05,9.06,4.16,9.02,9.19,0,.08,0,.16,0,.24l-.2,7.08c-.11,1.15.73,2.17,1.87,2.28,1.15.11,2.17-.73,2.28-1.87,0-.1.01-.19,0-.29l.21-7.08c.21-7.34-5.57-13.46-12.91-13.66-.09,0-.18,0-.27,0l-4.81-.06c-3.96-.04-7.73,1.69-10.27,4.73Z"/><path class="cls-30_radio-presenter-19-16c00 targetColor" d="M301.24,208.3c-1.45.5-3.04-.27-3.54-1.72l-12.47-36.14-26.83-9.02V49.04c1.85-.09,3.7-.15,5.55-.21v108.64l25.66,8.61,13.36,38.68c.49,1.46-.29,3.04-1.75,3.54Z" style="fill: rgb(104, 225, 253);"/><path class="cls-22_radio-presenter-19-16c00" d="M301.24,208.3c-1.45.5-3.04-.27-3.54-1.72l-12.47-36.14-26.83-9.02V49.04c1.85-.09,3.7-.15,5.55-.21v108.64l25.66,8.61,13.36,38.68c.49,1.46-.29,3.04-1.75,3.54Z"/><line class="cls-1_radio-presenter-19-16c00" x1="225.1" y1="169.34" x2="212.64" y2="205.45"/><line class="cls-1_radio-presenter-19-16c00" x1="289.6" y1="166.08" x2="302.96" y2="204.77"/><circle class="cls-27_radio-presenter-19-16c00" cx="262.04" cy="159.74" r="4.82"/><path class="cls-30_radio-presenter-19-16c00 targetColor" d="M255.25,159.74c0-3.75,3.03-6.8,6.78-6.81s6.8,3.03,6.81,6.78c0,3.75-3.03,6.8-6.78,6.81,0,0-.02,0-.02,0-3.74-.01-6.77-3.04-6.78-6.78ZM259.16,159.74c0,1.58,1.28,2.87,2.87,2.87s2.87-1.28,2.87-2.87-1.28-2.87-2.87-2.87h0c-1.58,0-2.87,1.28-2.87,2.87h0s0,0,0,0Z" style="fill: rgb(104, 225, 253);"/><circle class="cls-27_radio-presenter-19-16c00" cx="287.68" cy="167.77" r="4.82"/><path class="cls-30_radio-presenter-19-16c00 targetColor" d="M280.89,167.77c0-3.75,3.03-6.8,6.78-6.81,3.75,0,6.8,3.03,6.81,6.78,0,3.75-3.03,6.8-6.78,6.81,0,0,0,0-.01,0-3.75,0-6.79-3.03-6.79-6.78ZM284.8,167.77c0,1.59,1.29,2.88,2.88,2.88,1.59,0,2.88-1.29,2.88-2.88s-1.29-2.88-2.88-2.88c-1.58,0-2.87,1.27-2.88,2.85,0,0,0,.02,0,.02Z" style="fill: rgb(104, 225, 253);"/></g><g id="character_2_radio-presenter-19-16c00"><ellipse class="cls-30_radio-presenter-19-16c00 targetColor" cx="340.09" cy="230.18" rx="9.36" ry="10.64" style="fill: rgb(104, 225, 253);"/><ellipse class="cls-30_radio-presenter-19-16c00 targetColor" cx="343.32" cy="230" rx="9.36" ry="10.64" style="fill: rgb(104, 225, 253);"/><ellipse class="cls-20_radio-presenter-19-16c00" cx="343.32" cy="230" rx="9.36" ry="10.64"/><path class="cls-29_radio-presenter-19-16c00" d="M279.29,271.64s1.43-11.68.32-14.4c-.99-2.45-2.17-8.76-3.79-8.76-2.9,0-.13,13.16-6.93,7.28-1.09-.93-6.95-5.12-11.68-4.58-3.67.45-6.28,3.8-5.83,7.47.03.27.08.53.15.79.96,2.69,7.01,8.1,10.61,10.61,3.61,2.51,7.32,6.05,8.64,9.27"/><path class="cls-26_radio-presenter-19-16c00" d="M343.88,198.13s-7.74,6.75-7.68,16.51c.06,9.77-.52,36.09-.92,44.51s1.06,20.36,4.29,22.21c3.23,1.85,23.2,5.19,35.03,2.91,11.83-2.28,13.47-9.9,13.47-18.87s.79-42.53.79-48.86-1.46-17.91-12.74-21.95c-6.81-2.41-23.63-3.13-32.24,3.54Z"/><path class="cls-18_radio-presenter-19-16c00" d="M340.02,263.04c-.7,2.63-1.1,5.34-1.18,8.07-.05,2.76,1.12,5.4,3.18,7.23,2.15,1.66,5.05,1.88,7.77,1.97,5.63.21,11.26.24,16.9.07,1.81.02,3.62-.19,5.38-.61,5.58-1.58,9.21-7.22,10.38-12.9,1.17-5.68.41-11.56.13-17.36-.24-5.06-.12-10.18-1.25-15.12-.3-1.7-1.01-3.29-2.09-4.63-1.88-2.09-4.91-2.62-7.7-2.97-7.75-.97-15.8-1.46-23.21,1.01-1.96.56-3.76,1.57-5.26,2.95-3.54,3.54-1.18,10.05-1.18,14.53-.02,5.97-.65,11.93-1.88,17.77Z"/><path class="cls-29_radio-presenter-19-16c00" d="M373.2,246.93l1.03,21.56c-2.3,3.35-6.23,5.19-10.27,4.82-10.4-1.18-9.95-4.23-9.95-4.23,0,0,0-15.57-.41-19.05"/><path class="cls-19_radio-presenter-19-16c00" d="M370.72,253.96l2.36-4.35-19.5,2.22c.15,1.32.24,10.61.29,13.96,5.76,1.67,12.41-6.23,16.84-11.83Z"/><path class="cls-30_radio-presenter-19-16c00 targetColor" d="M387.84,272.62s-2.81.13-14.02-1.93c-10.53-1.92-14.45-.97-22.05.48-13.88,2.64-15.46,3.54-17.54,5.31-5.01,4.34-13.53,120.72-13.53,120.72,0,0-8.53,13.98,35.57,18.47,16.32,1.67,32.08-9.64,32.08-9.64l-.51-133.41Z" style="fill: rgb(104, 225, 253);"/><path class="cls-30_radio-presenter-19-16c00 targetColor" d="M378.19,271.26s-8.92,56.35-10.25,103.28c-.52,15.4-.08,30.81,1.33,46.15l26.68-9.27-11.5-90.14,3.4-48.66-9.66-1.36Z" style="fill: rgb(104, 225, 253);"/><path class="cls-30_radio-presenter-19-16c00 targetColor" d="M347.3,272.29l-6.68,150.43-24.17-11.3s12.22-95.18,11.88-100.25c-.34-5.07,5.9-34.69,5.9-34.69,3.89-2.58,8.41-4.03,13.07-4.2Z" style="fill: rgb(104, 225, 253);"/><path class="cls-7_radio-presenter-19-16c00" d="M378.19,271.26s-8.92,56.35-10.25,103.28c-.52,15.4-.08,30.81,1.33,46.15l26.68-9.27-11.5-90.14,3.4-48.66-9.66-1.36Z"/><path class="cls-4_radio-presenter-19-16c00" d="M389.87,365.66l-20.58-17.86s3.7,9.67,9.44,15.9c3.81,4.03,7.93,7.76,12.32,11.16l-1.18-9.2Z"/><path class="cls-5_radio-presenter-19-16c00" d="M347.3,272.29l-6.68,150.43-24.17-11.3s12.22-95.18,11.88-100.25c-.34-5.07,5.9-34.69,5.9-34.69,3.89-2.58,8.41-4.03,13.07-4.2Z"/><path class="cls-29_radio-presenter-19-16c00" d="M381.32,212.03s-.86,27.6-8.89,37.04c-8.47,9.98-20.46,12.17-25.24,2.21-8.59-17.91-8.1-22.48-8.4-29.37-.81-17.87,26.64-33.26,42.53-9.88Z"/><path class="cls-29_radio-presenter-19-16c00" d="M358.45,331.21s-10.7-6.89-14.39-12.97c-3.69-6.09-4.49-16.62-2.02-19.71,2.48-3.09,5.44-3.37,7.08-1.29s1.18,15.7,4.33,16.76-.38-8.15,2.13-7.54,4.47,3.43,5.06,8.92c.59,5.48,7.27,7.3,7.27,7.3,0,0-4.13,10.52-9.46,8.53Z"/><path class="cls-30_radio-presenter-19-16c00 targetColor" d="M385.84,272.62s15.53-4.34,14.54,28.43c-.99,32.78-6.52,63.16-10.53,64.61-4.01,1.45-37.08-35.68-37.08-35.68,0,0,7.02-9.16,10.52-10.61l15.53,12.05s1.51-39.5,7.02-58.8Z" style="fill: rgb(104, 225, 253);"/><path class="cls-30_radio-presenter-19-16c00 targetColor" d="M378.08,266.21l.17,5.05c.05.8-.35,1.55-1.04,1.96l-13.53,7.61c-.52.28-1.14.28-1.66,0l-13.54-6.76c-.69-.35-1.15-1.04-1.18-1.82l-.13-2.51c-.1-1.07.64-2.03,1.7-2.22l27.02-3.37c1.1-.11,2.07.69,2.18,1.78,0,.09.01.19,0,.28Z" style="fill: rgb(104, 225, 253);"/><path class="cls-26_radio-presenter-19-16c00" d="M351.54,215.58c-3,.08-8.26-7.71-9.82-1.98-3.95,14.27-2.17,26.77-3.69,26.06s-6.01-34.26,10.15-36.56c9.82-1.36,4.95-8.94,18.72-4.27,13.76,4.67,19.06,12.8,17.18,24.88s-5.53,17.95-7.42,11.24c-1.89-6.71-9.87-22.05-13.06-24.41-7.15-5.41-9.06,4.94-12.07,5.04Z"/><path class="cls-29_radio-presenter-19-16c00" d="M378.14,229.56s.44-4.15,4.53-2.36c4.09,1.79.25,9.05-1.34,11.02s-4.66,1.37-4.66,1.37"/><path class="cls-30_radio-presenter-19-16c00 targetColor" d="M336.41,274.97s-8.35,6.03-11.79,10.11c-3.44,4.08-18.68,20.52-20.05,20.9s-24.22-35.55-24.22-35.55c0,0-10.04,1.69-12.31,8,0,0,12.81,40.1,26.63,51.61,13.82,11.51,33.58-18.87,33.58-18.87" style="fill: rgb(104, 225, 253);"/><path class="cls-6_radio-presenter-19-16c00" d="M347.9,272.37s1.18,19.84,12.76,18.32c11.58-1.52,18.14-19.34,18.14-19.34,0,0-12.05,18.32-17.82,16.29-5.77-2.03-13.08-15.26-13.08-15.26Z"/><path class="cls-26_radio-presenter-19-16c00" d="M361.18,212.27c.35,1.63,1.11,3.61,2.77,3.73.3-.02.6.02.88.12.31.21.53.53.63.9,1.99,5.3,6.14,9.44,10.18,13.39.4-6.82-.62-13.65-3.01-20.05-.71-2.32-2.01-4.42-3.77-6.1-2.22-1.61-4.87-2.52-7.61-2.59-4.76-.43-9.56.04-14.15,1.38-2.23.49-4.28,1.61-5.9,3.22-1.42,1.79-2.24,3.97-2.36,6.25-.25,2.51-.07,5.05-.07,7.58s-.83,5.01-.83,7.37c3.79.61,9.9-3.27,12.97-5.28,4.01-2.63,7.49-5.99,10.26-9.91Z"/><path class="cls-30_radio-presenter-19-16c00 targetColor" d="M354.55,193.81l7.95-.61c.77-1.84,2.67-2.93,4.65-2.69,3.43.4-1.42-3.36-6.13-1.75-2.7.84-4.99,2.64-6.46,5.05Z" style="fill: rgb(104, 225, 253);"/><path class="cls-13_radio-presenter-19-16c00" d="M354.55,193.81l7.95-.61c.77-1.84,2.67-2.93,4.65-2.69,3.43.4-1.42-3.36-6.13-1.75-2.7.84-4.99,2.64-6.46,5.05Z"/><ellipse class="cls-30_radio-presenter-19-16c00 targetColor" cx="383.45" cy="232.29" rx="9.36" ry="10.64" style="fill: rgb(104, 225, 253);"/><ellipse class="cls-30_radio-presenter-19-16c00 targetColor" cx="386.68" cy="232.12" rx="9.36" ry="10.64" style="fill: rgb(104, 225, 253);"/><ellipse class="cls-11_radio-presenter-19-16c00" cx="386.68" cy="232.12" rx="9.36" ry="10.64"/><path class="cls-30_radio-presenter-19-16c00 targetColor" d="M354.55,193.81s5.25-7.82,11.98-3.63c6.73,4.19,14.41,32.6,14.41,32.6l5.73-1.31s-3.66-25-13.49-30.53c-9.84-5.53-16.89-1.84-18.63,2.88Z" style="fill: rgb(104, 225, 253);"/></g><g id="character_1_radio-presenter-19-16c00"><path class="cls-30_radio-presenter-19-16c00 targetColor" d="M142.01,266.27s-27.28,13.17-27.89,17.5c-.61,4.33,3.09,110.54,3.09,110.54,0,0,8.85,11.49,35.97,11.49s36.63-7.76,36.18-11.64c-1.52-13.44,5.67-109.58,5.06-114.11-.61-4.53-25.78-13.73-25.78-13.73l-26.63-.06Z" style="fill: rgb(104, 225, 253);"/><path class="cls-23_radio-presenter-19-16c00" d="M189.28,393.23s-20.56,5.6-30.33,5.25c-9.78-.35-41.83-6.79-41.83-6.79,0,0-3.54,13.76-1.69,15.16s11.45.52,25.03,1.04c13.57.52,21.85,6.75,32.69,6.51,10.84-.24,17.34-14.95,17.34-14.95l-1.2-6.2Z"/><path class="cls-9_radio-presenter-19-16c00" d="M159,333.68s-32.87,5.9-34.91,3.84c-1.83-1.83-9.74-55.43-9.97-53.76-.45,3.1,1.34,54.11,2.36,82.56,16.87-5.11,52.16-23.01,52.16-23.01-2.6-3.77-5.87-7.04-9.65-9.64Z"/><path class="cls-28_radio-presenter-19-16c00" d="M146.3,334.06c2.37-1.79,4.84-3.45,7.41-4.95,2.85-1.52,15.84-2.84,18.15-2.13s1.31,2.04-1.45,2.57-5.12-.06-5.72,1.6,3.07,5.07,2.83,7.98-.17,2.7-6.79,4.98c-6.63,2.28-12.88,5.33-14.58.19s-2.06-9.48.15-10.24Z"/><path class="cls-28_radio-presenter-19-16c00" d="M142.11,249.77s-.2,9.53-.09,16.51c.09,5.19,1.88,15.17,12.97,15.17s12.35-12.71,12.15-15.17c-.14-1.78.72-5.41,0-11.09-.77-6.06-24.41-9.65-25.03-5.43Z"/><path class="cls-23_radio-presenter-19-16c00" d="M141.96,265.4c-1.64-.67-3.53,0-4.36,1.58-1.66,2.78-1.77,8.36,0,15.97,1.77,7.61,3.24,9.56,3.24,9.56,0,0,7.25-10.26,12.35-10.67,0,0-10.04-1.97-11.23-16.44Z"/><path class="cls-23_radio-presenter-19-16c00" d="M167.18,265.4c1.64-.67,3.53,0,4.36,1.58,1.67,2.78,1.77,8.36,0,15.97-1.77,7.61-3.24,9.56-3.24,9.56,0,0-7.25-10.26-12.35-10.67,0,0,10.05-1.97,11.23-16.44Z"/><path class="cls-30_radio-presenter-19-16c00 targetColor" d="M119.19,278.83c-3.89,2.64-7.24,6-9.88,9.88-4.33,6.38-11.46,59.91-8.16,74.42,1.39,6.13,51.89-16.77,51.89-16.77,0,0-1.18-10.26-6.52-13.75,0,0-24.77,5.31-26.62,3.46s-.71-57.24-.71-57.24Z" style="fill: rgb(104, 225, 253);"/><path class="cls-28_radio-presenter-19-16c00" d="M175.74,216.15c.2,1.39.31,2.79.33,4.2.07,4.56-.73,9.52,1.53,13.72.51.94,1.18,1.8,1.57,2.78.46.97.46,2.1,0,3.08-.61,1.1-1.96,1.57-2.82,2.49-.9,1.23-1.4,2.71-1.42,4.23-.32,2.88-.41,5.67-.53,8.53.01,1.38-.26,2.74-.8,4.01-1.88,3.77-6.93,2.58-10.14,1.58-3.8-1.18-22.27-6.36-23.59-17.81-1.64-14.29-10.41-32.4,6.89-38.44,5.68-1.99,12.25-4.01,18.34-2.92,4.91.87,8.02,4.3,9.44,8.98.53,1.83.94,3.69,1.2,5.58Z"/><path class="cls-24_radio-presenter-19-16c00" d="M166.14,196.29s9.51.68,12.75,4.28c4.02,4.46,4.72,9.44.53,13.37-4.19,3.94-15.23.18-22.9,5.07-7.68,4.89.5,16.95-3.34,19.58s-1.54-5.25-6.62-7.27c-5.07-2.02-7.08,6.56-1.82,12.86,5.26,6.3.33,10.31-3.13,11.36-3.46,1.05-11.79-27.27-11.13-37.74s5.81-10.32,5.81-10.32c0,0,.12-16.25,29.84-11.19Z"/><path class="cls-25_radio-presenter-19-16c00" d="M167.35,261.65s-13.48-4.98-19.58-7.77c0,0,12.69,12.07,19.25,11.97l.33-4.2Z"/><path class="cls-30_radio-presenter-19-16c00 targetColor" d="M194.43,280.06s15.53,68.73,16.51,77.58c.98,8.85-10.35,13.27-15.43,11.79-11.24-3.17-9.44-22.41-9.44-22.41l8.35-66.97Z" style="fill: rgb(104, 225, 253);"/><path class="cls-30_radio-presenter-19-16c00 targetColor" d="M210.61,355.13l15.78,50.95-10.77,7.63s-22.8-32.54-24.61-42.22-2.45-22.95,7.08-22.69" style="fill: rgb(104, 225, 253);"/><path class="cls-28_radio-presenter-19-16c00" d="M230.8,418.43c-.85-2.23-2.04-4.39-2.69-6.68-.4-1.42-.33-2.84-1.31-4.03-3.14-3.81-8.72-1.43-10.11,2.62-.77,2.69-.56,5.56.58,8.11,1.01,2.57,2.52,4.92,3.74,7.41,1.35,2.44,2.02,5.19,1.95,7.97-.24,1.39-.4,2.78-.48,4.19-.02.45.11.9.37,1.27.73.9,2.18.38,3.1-.32,6.11-4.58,7.43-13.79,4.86-20.54Z"/><path class="cls-23_radio-presenter-19-16c00" d="M148.78,329.66l6.04,17.4-5.13,2.83s-7.95-16.03-8.33-16.82,7.42-3.41,7.42-3.41Z"/><polygon class="cls-8_radio-presenter-19-16c00" points="184.51 306.65 178.22 367.04 175.53 396.68 189.3 393.24 189.77 367.67 184.51 306.65"/><path class="cls-23_radio-presenter-19-16c00" d="M146.38,283.73s7.08,19,7.89,20.57,6.78-19.81,6.78-19.81c0,0,2.36-3.48-7.27-3.08-2.65,0-5.23.81-7.41,2.32Z"/><path class="cls-30_radio-presenter-19-16c00 targetColor" d="M158.24,195.43l-8.4.33c-1.45-1.32-3.59-1.54-5.28-.54-3.04,1.64.14-3.43,5.07-3.8,4.93-.37,8.61,4.01,8.61,4.01Z" style="fill: rgb(104, 225, 253);"/><path class="cls-12_radio-presenter-19-16c00" d="M158.24,195.43l-8.4.33c-1.45-1.32-3.59-1.54-5.28-.54-3.04,1.64.14-3.43,5.07-3.8,4.93-.37,8.61,4.01,8.61,4.01Z"/><ellipse class="cls-30_radio-presenter-19-16c00 targetColor" cx="144.02" cy="237.31" rx="9.36" ry="9.91" transform="translate(-78.27 71.04) rotate(-21.95)" style="fill: rgb(104, 225, 253);"/><ellipse class="cls-30_radio-presenter-19-16c00 targetColor" cx="140.96" cy="238.37" rx="9.36" ry="9.91" transform="translate(-78.88 69.97) rotate(-21.95)" style="fill: rgb(104, 225, 253);"/><ellipse class="cls-10_radio-presenter-19-16c00" cx="140.96" cy="238.37" rx="9.36" ry="9.91" transform="translate(-78.88 69.97) rotate(-21.95)"/><path class="cls-30_radio-presenter-19-16c00 targetColor" d="M158.24,195.43s-8.41-6.9-13.2-.78c-4.79,6.12-2.04,33.59-2.04,33.59l-5.76,1.01s-5.31-22.95,1.89-31.4c7.19-8.44,14.57-8.73,19.11-2.43Z" style="fill: rgb(104, 225, 253);"/><polygon class="cls-23_radio-presenter-19-16c00" points="215.48 415.45 212.35 410.77 225.21 402.44 228.79 407.53 215.48 415.45"/></g><g id="table_radio-presenter-19-16c00"><rect class="cls-24_radio-presenter-19-16c00" x="52.03" y="389.5" width="380.41" height="49.04"/><rect class="cls-14_radio-presenter-19-16c00" x="52.03" y="389.5" width="379.88" height="26.41"/><rect class="cls-24_radio-presenter-19-16c00" x="42.59" y="383.84" width="407.36" height="8.89"/></g></svg>